<svg width="26" height="23" viewBox="0 0 26 23" fill="none" xmlns="http://www.w3.org/2000/svg">
<path d="M1.31819 11.3214L3.24866 9.76073V21.3572C3.24866 21.7929 3.41987 22.2108 3.72461 22.5188C4.02935 22.8269 4.44267 23 4.87364 23H9.74856C10.1795 23 10.5929 22.8269 10.8976 22.5188C11.2023 22.2108 11.3735 21.7929 11.3735 21.3572V14.786H14.6235V21.3572C14.6235 21.7929 14.7947 22.2108 15.0994 22.5188C15.4042 22.8269 15.8175 23 16.2485 23H21.1234C21.5544 23 21.9677 22.8269 22.2724 22.5188C22.5772 22.2108 22.7484 21.7929 22.7484 21.3572V9.76073L24.6788 11.3214C24.7623 11.3888 24.858 11.4389 24.9606 11.469C25.0632 11.499 25.1707 11.5082 25.2768 11.4963C25.383 11.4843 25.4858 11.4513 25.5793 11.3992C25.6729 11.347 25.7553 11.2768 25.822 11.1924C25.8887 11.1081 25.9383 11.0113 25.968 10.9075C25.9976 10.8038 26.0068 10.6952 25.995 10.5879C25.9831 10.4805 25.9505 10.3766 25.8989 10.2821C25.8474 10.1875 25.7779 10.1041 25.6944 10.0367L13.5071 0.179963C13.363 0.0634632 13.1839 0 12.9993 0C12.8148 0 12.6357 0.0634632 12.4915 0.179963L8.12359 3.71197V1.64369C8.12359 1.208 7.95239 0.790145 7.64764 0.482062C7.3429 0.173978 6.92958 0.000899084 6.49861 0.000899084C6.06764 0.000899084 5.65432 0.173978 5.34958 0.482062C5.04484 0.790145 4.87364 1.208 4.87364 1.64369V6.34044L0.304208 10.0367C-0.0451616 10.3209 -0.102036 10.8368 0.17746 11.1916C0.243865 11.2759 0.326071 11.3462 0.419374 11.3984C0.512676 11.4506 0.615242 11.4836 0.7212 11.4957C0.827158 11.5077 0.934428 11.4986 1.03687 11.4686C1.13931 11.4387 1.23491 11.3887 1.31819 11.3214ZM12.9985 1.87368L21.1234 8.44485V21.3572H16.2485V13.1432H9.74856V21.3572H4.87364V8.4465L12.9985 1.87368Z" fill="#0C1D40"/>
</svg>
