<svg width="23" height="23" viewBox="0 0 23 23" fill="none" xmlns="http://www.w3.org/2000/svg">
<path id="IconeLink" d="M11.5554 15.4967L7.06334 19.9888C6.51948 20.5137 5.79313 20.807 5.03728 20.807C4.28144 20.807 3.55509 20.5137 3.01122 19.9888C2.74448 19.7231 2.53283 19.4073 2.38842 19.0597C2.244 18.712 2.16966 18.3392 2.16966 17.9627C2.16966 17.5862 2.244 17.2135 2.38842 16.8658C2.53283 16.5181 2.74448 16.2023 3.01122 15.9367L7.50329 11.4446C7.7213 11.2266 7.84377 10.9309 7.84377 10.6226C7.84377 10.3143 7.7213 10.0186 7.50329 9.80059C7.28528 9.58258 6.9896 9.4601 6.68129 9.4601C6.37298 9.4601 6.07729 9.58258 5.85929 9.80059L1.36722 14.3042C0.462274 15.2892 -0.0271483 16.5858 0.00116323 17.9231C0.0294748 19.2604 0.573331 20.535 1.51915 21.4808C2.46498 22.4267 3.73964 22.9705 5.07693 22.9988C6.41423 23.0272 7.71076 22.5377 8.69577 21.6328L13.1994 17.1407C13.4174 16.9227 13.5399 16.627 13.5399 16.3187C13.5399 16.0104 13.4174 15.7147 13.1994 15.4967C12.9814 15.2787 12.6857 15.1562 12.3774 15.1562C12.0691 15.1562 11.7734 15.2787 11.5554 15.4967ZM21.4889 1.51111C20.515 0.543238 19.1977 0 17.8246 0C16.4516 0 15.1343 0.543238 14.1603 1.51111L9.6567 6.00317C9.54875 6.11112 9.46313 6.23927 9.40471 6.38031C9.34629 6.52135 9.31622 6.67251 9.31622 6.82517C9.31622 6.97783 9.34629 7.129 9.40471 7.27004C9.46313 7.41108 9.54875 7.53923 9.6567 7.64718C9.76465 7.75512 9.8928 7.84075 10.0338 7.89917C10.1749 7.95759 10.326 7.98766 10.4787 7.98766C10.6314 7.98766 10.7825 7.95759 10.9236 7.89917C11.0646 7.84075 11.1928 7.75512 11.3007 7.64718L15.7928 3.15511C16.3366 2.63022 17.063 2.33688 17.8188 2.33688C18.5747 2.33688 19.301 2.63022 19.8449 3.15511C20.1116 3.4208 20.3233 3.73654 20.4677 4.08423C20.6121 4.43191 20.6865 4.80469 20.6865 5.18117C20.6865 5.55766 20.6121 5.93043 20.4677 6.27812C20.3233 6.6258 20.1116 6.94154 19.8449 7.20723L15.3528 11.6993C15.2443 11.8069 15.1582 11.935 15.0994 12.0761C15.0406 12.2171 15.0104 12.3685 15.0104 12.5213C15.0104 12.6741 15.0406 12.8255 15.0994 12.9665C15.1582 13.1076 15.2443 13.2357 15.3528 13.3433C15.4605 13.4518 15.5885 13.5379 15.7296 13.5967C15.8707 13.6555 16.022 13.6858 16.1748 13.6858C16.3277 13.6858 16.479 13.6555 16.6201 13.5967C16.7612 13.5379 16.8892 13.4518 16.9968 13.3433L21.4889 8.83966C22.4568 7.86574 23 6.54844 23 5.17538C23 3.80232 22.4568 2.48503 21.4889 1.51111ZM7.75799 15.242C7.86617 15.3493 7.99447 15.4342 8.13553 15.4918C8.27658 15.5494 8.42763 15.5786 8.58 15.5778C8.73236 15.5786 8.8834 15.5494 9.02446 15.4918C9.16552 15.4342 9.29382 15.3493 9.402 15.242L15.0981 9.54588C15.3161 9.32788 15.4386 9.03219 15.4386 8.72388C15.4386 8.41557 15.3161 8.11989 15.0981 7.90188C14.8801 7.68387 14.5844 7.5614 14.2761 7.5614C13.9678 7.5614 13.6721 7.68387 13.4541 7.90188L7.75799 13.598C7.64948 13.7056 7.56335 13.8337 7.50457 13.9748C7.4458 14.1158 7.41553 14.2672 7.41553 14.42C7.41553 14.5728 7.4458 14.7242 7.50457 14.8652C7.56335 15.0063 7.64948 15.1344 7.75799 15.242Z" fill="#0C1D40"/>
</svg>
